<?xml version="1.0" encoding="utf-8"?>
<!-- Generator: Adobe Illustrator 24.0.1, SVG Export Plug-In . SVG Version: 6.00 Build 0)  -->
<svg version="1.1"
	 id="Layer_1" inkscape:version="1.1 (ce6663b3b7, 2021-05-25)" sodipodi:docname="YouWhoMarker.svg" xmlns:inkscape="http://www.inkscape.org/namespaces/inkscape" xmlns:sodipodi="http://sodipodi.sourceforge.net/DTD/sodipodi-0.dtd" xmlns:svg="http://www.w3.org/2000/svg"
	 xmlns="http://www.w3.org/2000/svg" xmlns:xlink="http://www.w3.org/1999/xlink" x="0px" y="0px" viewBox="0 0 89.4 69.6"
	 style="enable-background:new 0 0 89.4 69.6;" xml:space="preserve">
<style type="text/css">
	.st0{fill-rule:evenodd;clip-rule:evenodd;fill:#999999;}
	.st1{fill:#00C994;}
	.st2{fill:#FFFFFF;}
</style>
<sodipodi:namedview  bordercolor="#666666" borderopacity="1.0" id="namedview8" inkscape:current-layer="layer2" inkscape:cx="38.029488" inkscape:cy="32.321208" inkscape:pagecheckerboard="0" inkscape:pageopacity="0.0" inkscape:pageshadow="2" inkscape:window-height="1012" inkscape:window-maximized="1" inkscape:window-width="1920" inkscape:window-x="0" inkscape:window-y="0" inkscape:zoom="6.4818122" pagecolor="#ffffff" showgrid="false" width="100px">
	</sodipodi:namedview>
<g id="layer2" transform="translate(-0.32000437,-2.0709998)" inkscape:groupmode="layer" inkscape:label="Layer 2">
	
		<path id="path107" inkscape:flatsided="false" inkscape:randomized="0" inkscape:rounded="0.15" inkscape:transform-center-y="2.2793056" sodipodi:arg1="-0.52359878" sodipodi:arg2="0.52359878" sodipodi:cx="216.6982" sodipodi:cy="192.61092" sodipodi:r1="7.264112" sodipodi:r2="4.6490316" sodipodi:sides="3" sodipodi:type="star" class="st0" d="
		M51.7,58c0.7,1-2.5,6.4-3.1,7.5c-0.7,1-4.2,6.2-5.6,6.2s-4.9-5.2-5.6-6.2s-3.8-6.4-3.1-7.5c0.7-1,7.4-1.3,8.7-1.3S51,57,51.7,58
		L51.7,58z"/>
</g>
<g>
	<path class="st1" d="M42.7,0.3L42.7,0.3c11.1,0,20.1,9,20.1,20.1v12c0,11.1-9,20.1-20.1,20.1l0,0c-11.1,0-20.1-9-20.1-20.1v-12
		C22.6,9.3,31.6,0.3,42.7,0.3z"/>
	<path class="st2" d="M37.1,8.1c0.1,0,0.1,0,0.2,0c0.2,0,0.3-0.1,0.5-0.1l0.1,0c1-0.3,2-0.5,2.9-0.6c0.8-0.1,1.6-0.1,2.4-0.1
		c0.2,0,0.4,0,0.6,0c0.9,0,1.8,0,2.7,0.2c0.8,0.1,3,0.8,3.4,0.9l0.4,0.2c0.5,0.2,0.9,0.4,1.3,0.5c0.1,0,0.2,0,0.3,0
		C52,9,52.2,9,52.3,8.8c0.2-0.2,0.2-0.5,0.2-0.7c-0.1-0.4-1-0.9-1.5-1c-0.2-0.1-1.4-0.6-1.9-0.7c-0.5-0.2-1.6-0.5-2.1-0.6
		c-0.6-0.1-1.1-0.1-1.7-0.2c-1.4,0-3-0.1-4.5,0.1c-0.1,0-0.2,0-0.3,0c-0.9,0.1-1.8,0.3-2.6,0.5c-0.3,0.1-0.7,0.2-1,0.2
		c-0.2,0-0.4,0.2-0.5,0.4c-0.1,0.2-0.1,0.4-0.1,0.6C36.3,8,36.7,8.2,37.1,8.1z"/>
	<path class="st2" d="M30.1,11.7c0.1,0,0.1,0.1,0.2,0.1c0,0,0.1,0,0.1,0c0,0,0.1,0,0.1,0c0.1,0,0.1-0.1,0.2-0.1
		c0.1,0,0.2-0.1,0.3-0.2c1.2-1,2.6-1.8,4-2.5c0.2-0.1,0.4-0.3,0.4-0.5c0.1-0.2,0-0.4-0.1-0.6c-0.2-0.3-0.4-0.5-0.8-0.4
		c-0.1,0-0.2,0.1-0.3,0.1c-0.1,0.1-0.2,0.1-0.3,0.2c-0.3,0.1-0.6,0.3-0.8,0.4c-0.9,0.6-2,1.3-3.1,2.1c-0.2,0.2-0.4,0.6-0.3,0.9
		C29.7,11.4,30,11.6,30.1,11.7z"/>
	<path class="st2" d="M31.9,39.3L31.9,39.3c1.9-3.7,2.6-7.5,2.1-11.5c-0.1-1.1-0.1-2.3,0.2-3.4c0.6-2.4,2-4.3,4.1-5.7
		c0.2-0.1,0.3-0.3,0.4-0.4c0,0,0-0.1,0-0.1c0,0,0-0.1,0-0.1c0-0.1,0-0.1,0-0.2c0-0.2-0.1-0.5-0.3-0.6c-0.1-0.1-0.3-0.2-0.5-0.1
		c0,0-0.1,0-0.1,0c-0.2,0.1-0.4,0.1-0.5,0.3c-3.6,2.5-5.2,6-4.8,10.3c0.3,3,0,5.6-0.8,8c-0.3,0.8-0.6,1.6-1,2.3
		c-0.1,0.3-0.3,0.5-0.4,0.8c-0.3,0.6,0,1,0.3,1.1c0.2,0.1,0.3,0.1,0.5,0.1c0.3,0,0.5-0.2,0.6-0.5C31.8,39.5,31.8,39.4,31.9,39.3z"/>
	<path class="st2" d="M30.4,36.6c0.1-0.2,0.1-0.3,0.2-0.5c0.2-0.6,0.4-1.3,0.6-2c0.7-2.5,0.5-5.1,0.3-7.6c0,0,0-0.3,0-0.4
		c0-0.2-0.1-0.4-0.2-0.5c-0.1-0.2-0.3-0.3-0.5-0.4c-0.1,0-0.2,0-0.3,0c-0.4,0-0.6,0.4-0.6,0.8c0,0.6,0,1.2,0.1,1.8
		c0.4,2.9,0,5.6-1,8.2c-0.2,0.5-0.1,0.9,0.4,1.1c0.1,0.1,0.3,0.1,0.4,0.1C30,37.2,30.3,37,30.4,36.6z"/>
	<path class="st2" d="M28.3,29c0.2,0,0.4-0.2,0.7-0.6c0.1-0.1,0-0.3,0-0.4c0-0.1,0-0.1,0-0.2c0-0.4,0-0.8,0-1.2
		c0-0.9,0.1-1.9,0.2-2.9c0.2-1.8,1.1-3.4,1.7-4.6c0.2-0.3,0.1-0.7,0-0.9c-0.1-0.2-0.5-0.3-0.7-0.3c0,0-0.1,0-0.1,0
		c-0.3,0.1-0.5,0.4-0.6,0.6c-1.6,2.8-2.4,5.8-2.2,9v0c0,0.1,0,0.2,0,0.3c0,0.2,0,0.5,0.1,0.7C27.6,28.7,28,29,28.3,29L28.3,29z"/>
	<path class="st2" d="M27,19.5c0.1,0.1,0.3,0.1,0.5,0.1l0,0c0.2,0,0.4-0.1,0.6-0.5c0-0.1,0.1-0.1,0.1-0.2c0,0,0-0.1,0.1-0.1
		c1.7-3.3,4.3-5.8,7.6-7.5c1.6-0.8,3.4-1.3,5.2-1.5c0.7-0.1,1.4-0.1,2.1-0.1c0.1,0,0.2,0,0.3,0c0.7-0.1,0.8-0.5,0.8-0.8
		c0-0.2-0.1-0.4-0.2-0.5c-0.2-0.2-0.5-0.3-0.9-0.3c-0.5,0-1,0-1.5,0.1l-0.6,0l-0.2,0l-0.2,0l-0.4,0.1c-0.2,0-0.3,0.1-0.6,0.1
		c-0.1,0-0.1,0-0.2,0l-0.1,0c-4.2,1-7.7,3.1-10.3,6.2c-0.7,0.8-1.2,1.8-1.8,2.7c-0.2,0.3-0.4,0.6-0.6,1c-0.1,0.2-0.2,0.4-0.1,0.6
		C26.7,19.2,26.8,19.4,27,19.5z"/>
	<path class="st2" d="M52.8,15.9c0.1,0.1,0.2,0.2,0.3,0.3c0.2,0.2,0.4,0.4,0.6,0.5c0.2,0.1,0.4,0.1,0.6,0.1c0.1,0,0.2,0,0.2-0.1
		c0.2-0.1,0.3-0.3,0.4-0.4c0,0,0.1-0.1,0.1-0.2c0,0,0-0.1,0-0.1c0-0.1,0-0.1,0-0.2c0,0,0-0.1-0.1-0.1c-0.1-0.1-0.2-0.2-0.3-0.3
		l-0.1-0.1c-0.4-0.4-0.7-0.7-1.1-1.1c-6-4.9-14.8-4.8-20.6,0.4c-0.5,0.4-1,0.9-1.4,1.4l0,0c-0.3,0.4-0.3,0.8,0,1.1
		c0.2,0.2,0.4,0.2,0.6,0.2c0.2,0,0.4-0.1,0.5-0.3c0.1-0.1,0.2-0.2,0.3-0.3c0.1-0.1,0.1-0.1,0.2-0.2C38.3,11,47.1,10.7,52.8,15.9
		L52.8,15.9z"/>
	<path class="st2" d="M44.4,36.8c-0.1,0.4-0.2,0.9-0.3,1.3c-0.1,0.5,0.1,0.8,0.5,0.9c0.1,0,0.2,0,0.3,0c0.3,0,0.5-0.2,0.6-0.5
		c0-0.1,0.1-0.2,0.1-0.3c0,0,0-0.1,0-0.1c0.9-3.6,1.2-7.3,0.9-10.9c0-0.1,0-0.3,0-0.4c0-0.3-0.1-0.6-0.1-0.9
		c-0.3-1.7-1.9-2.9-3.6-2.6l-0.1,0c-1.7,0.3-2.9,1.8-2.8,3.5c0.1,1.3,0.1,2.7,0.2,4l0,0.8c0,0.4,0.1,0.7,0.3,0.8
		c0.1,0.1,0.3,0.2,0.5,0.2c0,0,0.1,0,0.1,0c0.3,0,0.7-0.2,0.7-1c0-0.4,0-0.7,0-1.1c0-1.2,0-2.5-0.1-3.7c-0.1-1.2,0.5-2,1.5-2.1h0
		c0.4-0.1,0.9,0.1,1.3,0.4c0.4,0.3,0.6,0.8,0.7,1.3C45.3,30.2,45.1,33.6,44.4,36.8L44.4,36.8z"/>
	<path class="st2" d="M48.2,35.4L48.2,35.4c0.1,0,0.3-0.1,0.4-0.1c0.3-0.2,0.3-0.6,0.3-0.7c0.3-2.5,0.4-5,0.2-7.5l0-0.4
		c0-0.3-0.1-0.6-0.1-0.8c-0.2-1.6-1-3-2.2-4c-1.2-1-2.8-1.4-4.3-1.2c-0.7,0.1-1.3,0.3-2,0.6c-2.3,1.2-3.6,3.9-3,6.4
		c0.1,0.5,0.4,0.7,0.9,0.7h0c0.4-0.1,0.7-0.4,0.6-0.8c0-0.1,0-0.3,0-0.4c0-0.2,0-0.4,0-0.6c-0.1-2.1,1.6-4,3.8-4.3
		c0.1,0,0.1,0,0.2,0c2.1-0.2,4.1,1.4,4.4,3.5c0.2,1.5,0.3,3,0.3,4.4c0,0.9-0.1,1.7-0.1,2.6c0,0.5-0.1,1.1-0.1,1.7
		c0,0.3,0.1,0.6,0.4,0.8C47.9,35.4,48.2,35.4,48.2,35.4z"/>
	<path class="st2" d="M42.3,13.2L42.3,13.2c-3,0.4-5.7,1.5-7.8,3.3c-2.1,1.7-3.5,4-4.2,6.6c-0.1,0.4-0.1,0.7,0,0.9
		c0.1,0.2,0.3,0.3,0.5,0.3c0.1,0,0.2,0,0.3,0c0.2,0,0.6-0.2,0.7-0.8c0.9-3.1,2.7-5.6,5.5-7.2c1.4-0.8,2.9-1.3,4.4-1.5
		c1.5-0.2,3.2-0.1,4.8,0.4c1.3,0.4,2.6,1,3.7,1.9c0.2,0.2,0.5,0.3,0.8,0.3l0,0c0.2,0,0.4-0.1,0.5-0.3c0.1-0.1,0.2-0.3,0.2-0.5
		c0-0.3-0.2-0.5-0.5-0.8C48.5,13.8,45.3,12.8,42.3,13.2z"/>
	<path class="st2" d="M49.5,40.5c0.1,0,0.2,0,0.3,0l0,0c0.2,0,0.5-0.1,0.7-0.7c0-0.2,0.1-0.3,0.1-0.4c0.1-0.2,0.1-0.5,0.2-0.7
		c0-0.2,0.2-0.9,0.3-1.5c0.2-0.7,0.3-1.3,0.3-1.5l0.1-1.3c0.1-0.5,0.1-1,0.2-1.5c0.2-2.6,0.1-5.3-0.3-7.9c-0.6-3.7-4-6.6-7.9-6.8
		c-0.1,0-0.2,0-0.3,0c-0.6,0.1-0.7,0.4-0.7,0.8c0,0.2,0,0.4,0.2,0.6c0.1,0.2,0.4,0.2,0.7,0.3c3.5,0.1,6.3,2.9,6.6,6.6
		c0.2,2.9,0.2,5.2,0,7.3c0,0.3-0.1,0.6-0.1,0.9c-0.1,0.6-0.1,1.1-0.2,1.7c0,0.1,0,0.2-0.1,0.3c0,0.1,0,0.1,0,0.1l-0.1,0.4l0,0
		c-0.1,0.4-0.2,0.9-0.3,1.3c-0.1,0.3-0.1,0.6-0.2,0.9C48.8,40,49,40.3,49.5,40.5z"/>
	<path class="st2" d="M48,39.4l0.4-1.8c0.2-0.4,0.2-0.8-0.1-1c-0.1-0.1-0.2-0.2-0.4-0.2c-0.1,0-0.2,0-0.3,0c-0.3,0-0.6,0.3-0.7,0.7
		c0,0,0,0.1,0,0.1l0,0c-0.7,3-1.8,6-3.2,8.7c-0.2,0.3-0.2,0.6-0.2,0.8c0.1,0.2,0.2,0.3,0.4,0.4c0.1,0.1,0.3,0.1,0.5,0.1h0
		c0.3,0,0.5-0.2,0.7-0.6C45.3,46.2,46.5,43.3,48,39.4L48,39.4z"/>
	<path class="st2" d="M53.8,36c0-0.3,0.2-0.6,0.1-0.9c0-0.1,0-0.1-0.1-0.2c0-0.1-0.1-0.1-0.2-0.2c-0.2-0.1-0.3-0.2-0.5-0.2
		c-0.1,0-0.1,0-0.2,0c-0.3,0-0.6,0.3-0.6,0.8c-0.1,0.4-0.2,0.9-0.3,1.3c-0.2,1.2-0.5,2.5-0.8,3.7c-0.3,1-0.6,2-1,2.9
		c-0.2,0.4-0.3,0.9-0.5,1.3c-0.1,0.3-0.1,0.7,0.1,0.9c0.1,0.2,0.3,0.3,0.6,0.2c0,0,0.1,0,0.1,0c0.3-0.1,0.6-0.4,0.7-0.7
		c0.9-2.3,1.7-4.7,2.1-7.2C53.6,37.2,53.7,36.7,53.8,36z"/>
	<path class="st2" d="M53.5,18c-0.2-0.2-0.5-0.5-0.8-0.4c-0.1,0-0.3,0.1-0.4,0.2C52.1,17.8,52,18,52,18.2c0,0.2,0.1,0.5,0.3,0.8
		c1.6,1.9,2.5,4.2,2.7,6.7c0.1,0.6,0.1,1.2,0.2,1.7c0,0.2,0,0.4,0.1,0.6l0,1.4c0,0.2,0,0.3,0,0.5c0,0.3,0,0.6,0,0.9
		c0,3.7-0.6,7.5-1.8,11.3c-0.2,0.6,0,1,0.5,1.1c0.1,0,0.3,0.1,0.4,0l0,0c0.3,0,0.6-0.3,0.7-0.7c0-0.2,0.1-0.4,0.2-0.5
		c0.1-0.4,0.2-0.8,0.3-1.2c1.1-4.2,1.5-8.1,1.4-11.9v-0.1c0,0,0-0.9,0-1.1c-0.1-1.3-0.2-2.4-0.4-3.3C56,21.9,55,19.8,53.5,18z"/>
	<path class="st2" d="M46.3,8.4c-0.1,0-0.2,0-0.4-0.1c-0.1,0-0.2,0-0.2,0c-0.1,0-0.1,0.1-0.2,0.1c0,0-0.1,0.1-0.2,0.2
		c-0.1,0.1-0.2,0.2-0.2,0.4c-0.1,0.4,0.2,0.7,0.6,0.9c0.3,0.1,0.5,0.1,0.8,0.2c0.6,0.1,1.2,0.3,1.8,0.5c2.9,0.9,5.5,2.7,7.5,5
		c0.2,0.2,0.4,0.5,0.8,0.4l0,0c0.1,0,0.3-0.1,0.4-0.2c0.2-0.1,0.3-0.3,0.3-0.5c0-0.3-0.1-0.5-0.3-0.8c-2.6-3-6-5-9.9-5.9
		C46.9,8.5,46.6,8.4,46.3,8.4z"/>
	<path class="st2" d="M49.7,41.8c-0.1-0.2-0.3-0.3-0.5-0.4c-0.1-0.1-0.3-0.1-0.4-0.1c-0.3,0-0.5,0.2-0.6,0.6c-0.6,1.4-1.1,2.7-1.6,4
		c-0.1,0.2-0.1,0.5,0.1,0.7c0.2,0.2,0.5,0.3,0.8,0.3l0,0l0.1,0l0-0.1c0,0,0,0,0.1-0.1c0.1-0.1,0.2-0.2,0.3-0.4
		c0.6-1.3,1.1-2.6,1.6-3.9C49.8,42.3,49.8,42,49.7,41.8z"/>
	<path class="st2" d="M58.8,23.7L58.8,23.7c-0.3-1.7-0.9-3.3-1.7-4.8c-0.2-0.4-0.5-0.9-0.8-1.3c-0.2-0.3-0.5-0.4-0.7-0.4
		c-0.1,0-0.3,0.1-0.4,0.2C55,17.6,55,17.9,55,18.1c0,0.1,0,0.1,0,0.2c0,0.1,0,0.2,0.1,0.3c0,0,0,0,0,0.1c0.9,1.4,1.5,2.8,1.9,4.3
		c0.1,0.3,0.1,0.7,0.2,1c0,0.2,0.1,0.4,0.1,0.6c0.1,0.5,0.4,0.8,0.9,0.8l0,0c0.5-0.1,0.7-0.4,0.6-1c0-0.1,0-0.2,0-0.4L58.8,23.7z"/>
	<path class="st2" d="M46.6,16.2c-1.5-0.5-3-0.7-4.6-0.5c-0.6,0.1-1.3,0.2-1.9,0.4c-0.5,0.2-0.7,0.5-0.6,1c0.1,0.3,0.3,0.6,0.9,0.6
		c0,0,0.1,0,0.1,0s0.1,0,0.1,0l0.1,0c0.4-0.1,0.9-0.2,1.3-0.3c4.7-0.6,9,2.4,10.1,7c0.3,1,0.3,2.2,0.4,3.2c0,0.3,0,0.6,0.1,0.9
		c0.1,0.6,0.1,1.2,0.1,1.9c0,0.3,0,0.6,0,0.8l0,0.5c0,0.1,0,0.2,0,0.3c0,0.2,0,0.4,0,0.6c0,0.3,0.2,0.6,0.3,0.9
		c0.1,0.2,0.4,0.2,0.5,0.2c0.1,0,0.1,0,0.2-0.1c0.1-0.1,0.5-0.3,0.5-0.6c0-0.1,0-0.3,0.1-0.5c0-0.3,0.1-0.5,0.1-0.8l0-2.3v-0.5v-0.1
		c0,0,0-0.1,0-0.1c0-0.3,0-0.5,0-0.8c0-0.4,0-0.8-0.1-1.2c0-0.2-0.1-0.4-0.1-0.6C53.8,21.4,51,17.7,46.6,16.2z"/>
	<path class="st2" d="M41.4,34.4c0-0.1,0-0.2,0-0.3l0-0.1c0,0,0-0.1-0.1-0.1c-0.1-0.1-0.3-0.3-0.5-0.3c0,0-0.1,0-0.1,0
		c-0.2,0-0.4,0.2-0.6,0.3l0,0c-0.1,0.1-0.1,0.3-0.2,0.4c0,0,0,0.1,0,0.1c-0.5,3.1-1.6,6.1-3.3,8.9c-0.1,0.2-0.2,0.3-0.3,0.5
		c-0.1,0.1-0.2,0.3-0.3,0.4c-0.2,0.4-0.2,0.8,0.2,1.1c0.2,0.1,0.4,0.2,0.6,0.2c0.2,0,0.4-0.1,0.5-0.3c0.1-0.2,0.3-0.3,0.4-0.5
		c1.9-3.1,3.2-6.4,3.8-9.8C41.3,34.6,41.3,34.6,41.4,34.4z"/>
	<path class="st2" d="M36.5,27.5c-0.2-1.6,0.1-3.2,1-4.5c0.8-1.3,1.9-2.2,3.4-2.8c0.2-0.1,0.4-0.2,0.6-0.4c0,0,0.1-0.1,0.1-0.1
		c0,0,0-0.1,0.1-0.1c0,0,0-0.1,0-0.1c0-0.3-0.1-0.6-0.3-0.7c-0.2-0.1-0.4-0.2-0.6-0.2c-0.1,0-0.2,0-0.2,0.1
		c-1.1,0.4-2.1,0.9-2.9,1.7c-2.1,2-3,4.5-2.6,7.5c0.2,1.8,0.2,3.5-0.1,5.3c-0.4,2.7-1.4,5.4-2.8,7.7c-0.4,0.7-0.2,1.1,0.1,1.3
		c0.1,0.1,0.3,0.2,0.5,0.1c0.3,0,0.5-0.2,0.7-0.6c0.4-0.7,0.9-1.5,1.2-2.3C36.4,35.7,37,31.6,36.5,27.5z"/>
	<path class="st2" d="M39.2,30.1L39.2,30.1c0-0.3-0.1-0.5-0.3-0.6c-0.1-0.1-0.3-0.2-0.5-0.2c-0.1,0-0.3,0.1-0.4,0.2
		c-0.2,0.2-0.3,0.6-0.3,0.8c-0.1,4.1-1.1,7.9-3.1,11.3c-0.1,0.2-0.2,0.3-0.3,0.5c-0.1,0.2-0.3,0.5-0.4,0.8c-0.2,0.4-0.2,0.8,0.2,1.1
		c0.1,0.1,0.3,0.2,0.5,0.1c0.2,0,0.4-0.1,0.6-0.3c0.1-0.1,0.1-0.2,0.2-0.3c0,0,0-0.1,0.1-0.1c1.4-2.3,2.5-4.7,3.1-7.3
		C39,34,39.2,32,39.2,30.1z"/>
	<path class="st2" d="M44.4,40c-0.1-0.1-0.3-0.1-0.4-0.1c-0.3,0-0.5,0.2-0.7,0.6c-0.5,1.1-1.1,2.3-1.6,3.4c-0.3,0.7-0.6,1.3-0.9,2
		c-0.1,0.1-0.1,0.2-0.1,0.4c0,0.1,0,0.1,0,0.2c0,0,0,0.1,0,0.1c0,0,0,0.1,0,0.1c0,0,0.1,0.1,0.1,0.1c0.1,0.1,0.3,0.3,0.5,0.3
		c0,0,0.1,0,0.1,0c0.2,0,0.6-0.2,0.7-0.4c1-1.6,1.9-3.4,2.7-5.7C45,40.5,44.9,40.1,44.4,40z"/>
	<path class="st2" d="M44.1,27.1c0-0.2-0.1-0.5-0.1-0.7c-0.1-0.4-0.4-0.7-0.9-0.6c-0.4,0.1-0.7,0.4-0.7,0.8c0,0.1,0,0.2,0,0.3
		c0,0,0,0.1,0,0.1c0.6,6.5-0.7,12.6-4.1,18.1c-0.2,0.2-0.5,0.8,0.1,1.3c0.1,0.1,0.3,0.2,0.5,0.1c0.3,0,0.5-0.2,0.7-0.5
		c3.5-5.7,4.9-11.9,4.4-18.5C44.1,27.3,44.1,27.2,44.1,27.1z"/>
</g>
</svg>
