<?xml version="1.0" encoding="utf-8"?>
<!-- Generator: Adobe Illustrator 24.0.1, SVG Export Plug-In . SVG Version: 6.00 Build 0)  -->
<svg version="1.1"
	 id="Layer_1" inkscape:version="1.1 (ce6663b3b7, 2021-05-25)" sodipodi:docname="YouWhoLogo.svg" xmlns:inkscape="http://www.inkscape.org/namespaces/inkscape" xmlns:sodipodi="http://sodipodi.sourceforge.net/DTD/sodipodi-0.dtd" xmlns:svg="http://www.w3.org/2000/svg"
	 xmlns="http://www.w3.org/2000/svg" xmlns:xlink="http://www.w3.org/1999/xlink" x="0px" y="0px" viewBox="0 0 65.1 69.6"
	 style="enable-background:new 0 0 65.1 69.6;" xml:space="preserve">
<style type="text/css">
	.st0{opacity:0.1;}
	.st1{fill:#B5B5B5;}
	.st2{fill:#999999;}
</style>
<sodipodi:namedview  bordercolor="#666666" borderopacity="1.0" id="namedview8" inkscape:current-layer="layer2" inkscape:cx="38.029488" inkscape:cy="32.321208" inkscape:pagecheckerboard="0" inkscape:pageopacity="0.0" inkscape:pageshadow="2" inkscape:window-height="1012" inkscape:window-maximized="1" inkscape:window-width="1920" inkscape:window-x="0" inkscape:window-y="0" inkscape:zoom="6.4818122" pagecolor="#ffffff" showgrid="false" width="100px">
	</sodipodi:namedview>
<g class="st0">
	<path class="st1" d="M7,13.6l3.9,6.4c0.2,0.4,0.6,0.5,1,0.4c0.2-0.1,0.3-0.2,0.4-0.4l4-6.4c0.2-0.4,0.6-0.6,1-0.6h4
		c0.6,0,1.1,0.5,1.1,1.1c0,0.2,0,0.4-0.1,0.5l-7.7,12.2c-0.1,0.2-0.1,0.3-0.1,0.5v5.6c0,0.6-0.5,1.1-1.1,1.1l0,0H9.8
		c-0.6,0-1.1-0.5-1.1-1.1l0,0v-5.7c0-0.2,0-0.3-0.1-0.5L1.1,14.5C0.8,14,1,13.3,1.5,13C1.7,13,1.9,12.9,2,12.9h4
		C6.4,12.9,6.8,13.2,7,13.6z"/>
	<path class="st1" d="M53.8,34c-1.7,0-3.1-0.3-4.3-0.8c-1.2-0.5-2.2-1.3-3-2.3c-0.8-1-1.3-2.1-1.7-3.3c-0.4-1.3-0.5-2.6-0.5-3.9
		v-9.7c0-0.6,0.5-1.1,1.1-1.1c0,0,0,0,0,0H49c0.6,0,1.1,0.5,1.1,1.1v9.7c0,0.7,0.1,1.3,0.2,2c0.1,0.6,0.3,1.2,0.7,1.7
		c0.3,0.5,0.7,0.9,1.1,1.2c0.5,0.3,1,0.4,1.7,0.4c0.7,0,1.3-0.1,1.7-0.4c0.5-0.3,0.9-0.7,1.1-1.2c0.3-0.5,0.5-1.1,0.6-1.7
		c0.1-0.6,0.2-1.3,0.2-2v-9.7c0-0.6,0.5-1.1,1.1-1.1h3.6c0.6,0,1.1,0.5,1.1,1.1v9.7c0,1.4-0.2,2.8-0.6,4.1c-0.4,1.2-0.9,2.3-1.7,3.3
		c-0.8,1-1.8,1.7-2.9,2.2C56.9,33.8,55.4,34,53.8,34z"/>
	<path class="st1" d="M41.4,19.6c-0.5-1.3-1.2-2.4-2.1-3.5c-0.9-1-2.1-1.9-3.3-2.4c-1.3-0.6-2.8-0.9-4.4-0.9c-1.5,0-2.9,0.3-4.3,0.9
		C26,14.2,24.8,15,23.9,16c-0.9,1-1.7,2.1-2.2,3.4c-0.5,1.3-0.8,2.6-0.8,4c0,1.4,0.3,2.7,0.8,4c0.5,1.3,1.2,2.4,2.2,3.4
		c0.9,1,2.1,1.9,3.4,2.4c1.3,0.6,2.8,0.9,4.4,0.9c1.6,0,3-0.3,4.3-0.9c1.3-0.6,2.4-1.4,3.4-2.4c0.9-1,1.7-2.1,2.2-3.4
		c0.5-1.3,0.8-2.6,0.8-4C42.2,22.1,41.9,20.8,41.4,19.6z M31.5,28.8c-2.9,0-5.2-2.4-5.2-5.3c0-3,2.4-5.4,5.3-5.3
		c2.8,0,5.2,2.5,5.2,5.3C36.7,26.4,34.4,28.8,31.5,28.8z"/>
	<path class="st2" d="M25.6,38.7h-3.2c-0.5,0-1,0.4-1,1l0,0v8.6c0,0.6-0.1,1.2-0.2,1.7c-0.1,0.5-0.3,1-0.6,1.5
		c-0.3,0.4-0.7,0.7-0.8,0.9c-0.1,0.1-0.4,0.2-0.7,0.2c-0.3,0-0.6-0.1-0.7-0.2c-0.3-0.2-0.6-0.5-0.8-0.9c-0.3-0.5-0.5-1-0.6-1.5
		c-0.1-0.6-0.2-1.2-0.2-1.8v-8.6c0-0.5-0.4-1-1-1l0,0h-3.2c-0.5,0-1,0.4-1,1l0,0v8.6c0,0.6-0.1,1.2-0.2,1.7c-0.1,0.5-0.3,1-0.6,1.5
		c-0.3,0.4-0.7,0.7-0.8,0.9c-0.1,0.1-0.4,0.2-0.7,0.2c-0.3,0-0.6-0.1-0.7-0.2C8.3,52.3,8,52,7.8,51.6c-0.3-0.5-0.5-1-0.6-1.5
		C7.1,49.5,7,48.9,7,48.4v-8.6c0-0.5-0.4-1-1-1c0,0,0,0,0,0H2.8c-0.5,0-1,0.4-1,1c0,0,0,0,0,0v8.7c0,1.2,0.2,2.4,0.5,3.5
		c0.3,1.1,0.8,2.1,1.5,3c0.7,0.9,1.5,1.6,2.5,2.1c1.1,0.6,1.9,0.7,3,0.6c1.1,0,1.9-0.1,2.9-0.6c0.7-0.4,1.4-0.9,2-1.5
		c0.6,0.6,1.2,1.1,1.9,1.4c1.1,0.6,1.9,0.7,3,0.6c1.1,0,1.9-0.1,2.9-0.6c1-0.6,1.8-1.2,2.5-2c0.7-0.9,1.2-1.9,1.5-3
		c0.4-1.2,0.5-2.4,0.5-3.6v-8.7C26.6,39.2,26.1,38.7,25.6,38.7L25.6,38.7z"/>
	<path class="st2" d="M44.7,39.9v16.6c0,0.7-0.5,1.2-1.2,1.2h-2.8c-0.7,0-1.2-0.5-1.2-1.2v-5c0-0.7-0.5-1.2-1.2-1.2h-4
		c-0.7,0-1.2,0.5-1.2,1.2v5c0,0.7-0.5,1.2-1.2,1.2c0,0,0,0,0,0h-2.8c-0.7,0-1.2-0.5-1.2-1.2V39.9c0-0.7,0.5-1.2,1.2-1.2h2.8
		c0.7,0,1.2,0.5,1.2,1.2c0,0,0,0,0,0v4.6c0,0.7,0.5,1.2,1.2,1.2h4c0.7,0,1.2-0.5,1.2-1.2c0,0,0,0,0,0v-4.6c0-0.7,0.5-1.2,1.2-1.2
		h2.8C44.2,38.7,44.7,39.2,44.7,39.9C44.7,39.9,44.7,39.9,44.7,39.9z"/>
	<path class="st2" d="M64,44.7c-0.4-1.1-1.1-2.2-1.9-3.1c-0.8-0.9-1.9-1.7-3-2.2c-1.2-0.5-2.5-0.8-3.9-0.8c-1.3,0-2.6,0.2-3.8,0.8
		c-1.1,0.5-2.2,1.2-3,2.1c-0.8,0.9-1.5,1.9-2,3c-0.5,1.1-0.7,2.3-0.7,3.6c0,1.2,0.2,2.4,0.7,3.5c0.4,1.1,1.1,2.2,1.9,3.1
		c0.8,0.9,1.9,1.6,3,2.2c1.2,0.5,2.5,0.8,3.9,0.8c1.3,0,2.6-0.2,3.9-0.8c1.1-0.5,2.2-1.2,3-2.1c0.8-0.9,1.5-1.9,2-3
		c0.5-1.1,0.7-2.3,0.7-3.5C64.7,47,64.4,45.8,64,44.7z M55.1,52.9c-2.6,0-4.7-2.2-4.6-4.8c0-2.6,2.2-4.8,4.7-4.7
		c2.5,0,4.6,2.2,4.6,4.7C59.8,50.8,57.7,52.9,55.1,52.9z"/>
</g>
</svg>
