<?xml version="1.0" encoding="UTF-8" standalone="no"?>
<svg
   version="1.1"
   id="Layer_1"
   x="0px"
   y="0px"
   viewBox="189 -84 90 60"
   xml="preserve"
   sodipodi:docname="YouWhoMarker.svg"
   width="90"
   height="60"
   inkscape:version="1.1 (ce6663b3b7, 2021-05-25)"
   inkscape:export-filename="/home/phyx1u5/Moralis/yh2/youwho/src/components/map/YouWhoMarker.png"
   inkscape:export-xdpi="96"
   inkscape:export-ydpi="96"
   xmlns:inkscape="http://www.inkscape.org/namespaces/inkscape"
   xmlns:sodipodi="http://sodipodi.sourceforge.net/DTD/sodipodi-0.dtd"
   xmlns="http://www.w3.org/2000/svg"
   xmlns:svg="http://www.w3.org/2000/svg">
  <defs
     id="defs10" />
  <sodipodi:namedview
     id="namedview8"
     pagecolor="#ffffff"
     bordercolor="#666666"
     borderopacity="1.0"
     inkscape:pageshadow="2"
     inkscape:pageopacity="0.0"
     inkscape:pagecheckerboard="0"
     showgrid="false"
     width="100px"
     inkscape:zoom="6.4818122"
     inkscape:cx="38.183766"
     inkscape:cy="34.32682"
     inkscape:window-width="1920"
     inkscape:window-height="1012"
     inkscape:window-x="0"
     inkscape:window-y="0"
     inkscape:window-maximized="1"
     inkscape:current-layer="layer2" />
  <g
     inkscape:groupmode="layer"
     id="layer2"
     inkscape:label="Layer 2">
    <g
       id="g17"
       transform="matrix(0.18684952,0,0,0.18684952,151.94001,-69.866335)">
      <path
         id="XMLID_29_"
         style="fill:#0077b3"
         d="m 451.1,133 c -18.3,-1.2 -26.3,12.2 -30.9,29.8 -1.5,5.7 -8.1,22.5 -13.4,25.4 -3.5,1.8 -18.9,0.9 -23.6,0.9 -14.7,0 -7.1,0.2 -22.4,-0.4 -13,-0.6 -11,-16.9 -25.5,-23.7 -12.8,-6 -39.5,-5.8 -54.8,-1.7 -6.5,2.4 -11.5,3.7 -15.6,9.6 -7.1,9.4 -5.7,15.8 -19.9,15.8 -10,0 -31,0.4 -35.6,-0.4 -11.9,-2.3 -10,-35.2 -7.4,-46.8 6.5,-28.9 39,-47.8 59.6,-66.7 23.6,-21.8 48.3,-29.6 80.1,-29.6 24.1,0 43,8.3 61.3,24.8 18.3,15.9 40.6,32.4 48.9,56.6" />
      <path
         id="XMLID_24_"
         style="fill:#ffcc00"
         d="m 450,132.9 c 6.2,-10.9 23,-20.7 35,-20.7 V 112 C 473,93.4 458.9,74.9 455.3,52.7 c -5.3,-12.4 -10.7,-24.8 -16,-38 -9.7,-23 -22.1,-43.4 -37.1,-65.5 -7.9,-10.6 -19.5,-17.7 -32,-20.8 -21.9,8.6 -43.1,25.6 -56.7,44.2 -10.6,14.5 -15.8,30.7 -20.2,47.8 -3.9,15.4 -7.4,35.2 -20.7,45.6 6.2,-3.8 11.4,-7.1 18.2,-10.1 14.1,-6.2 31.5,-7.4 46.5,-8 16.5,-0.6 29.4,1.8 43.3,10.9 14.1,9.4 28.7,17.4 39.3,31 10.3,13.1 20.3,29.6 30.1,43.1" />
      <path
         id="XMLID_39_"
         style="fill:#ff5a1a"
         d="m 368.9,-70.3 c 9.4,0 30.3,13.5 41.9,34.7 14.1,25.8 16,26.8 29,54 13,28.3 20.3,59.7 38,85.7 9.4,13 15.4,24.1 27.4,38.2 11.4,13.4 24,22.7 39.3,29.2 16.5,7.1 34.3,9.7 52.6,8 15.3,-1.2 28.6,-6.3 41.5,-14.6 29.4,-18.9 37,-52.7 39.2,-84.7 0.5,-7 1.1,-25.3 -0.8,-33.2 -0.3,-1 -9.8,-0.7 -16,-0.5 -6.1,0.2 -15,-0.6 -15.3,0.2 -3.2,10.5 -1,37.9 -6.4,47.4 -15.9,27.1 -61.8,24.2 -79.5,1.8 C 541,72.3 526.8,38.1 518,9.8 501.9,-41 424.8,-91.5 368.9,-70.3 Z m 107.3,70 c 6.8,0 6.8,10.6 0,10.6 -6.8,0 -6.8,-10.6 0,-10.6 z" />
      <path
         id="XMLID_25_"
         style="fill:#f1e7b2"
         d="m 483.5,112.3 c 7.5,9.1 13.1,20.3 21.1,29.3 8.2,9.3 16,16.6 26.9,22.8 11,6.2 23.2,11.5 35.6,13.9 8.3,1.6 17,0.9 25.6,0.9 3.5,0 8.9,-0.3 12.4,-0.8 6.7,-1 9.7,-3 15.6,-4.7 9.1,-2.9 9.3,5.5 3.1,9.7 -4.6,3.5 -10.4,6 -15.9,8 -11,4 -24.5,5.1 -36.4,5.1 -9.1,0 -18.1,0.2 -26.9,-1.8 -11.5,-2.9 -22.3,-7.5 -32.9,-12.4 -11.3,-5.1 -20.5,-12.4 -30.9,-19 -10.8,-6.9 -21.4,-16.4 -28.7,-27 -1.8,-2.4 -2.7,-4 -1.8,-6.9 0.7,-2.4 4.4,-6.4 6.4,-8 4.6,-3.8 8,-5.1 14,-6.8 3.5,-0.9 7.7,-3.1 11.4,-2.4" />
      <path
         id="XMLID_23_"
         style="fill:#ffffff"
         d="m 476.2,10.3 c 6.8,0 6.8,-10.6 0,-10.6 -6.8,0 -6.8,10.6 0,10.6 z" />
    </g>
    <path
       sodipodi:type="star"
       style="fill:#cccccc;fill-rule:evenodd;opacity:0.5"
       id="path107"
       inkscape:flatsided="false"
       sodipodi:sides="3"
       sodipodi:cx="216.6982"
       sodipodi:cy="192.61092"
       sodipodi:r1="7.264112"
       sodipodi:r2="4.6490316"
       sodipodi:arg1="-0.52359878"
       sodipodi:arg2="0.52359878"
       inkscape:rounded="0.15"
       inkscape:randomized="0"
       d="m 222.9891,188.97886 c 0.47795,0.82782 -1.78678,5.12875 -2.26472,5.95657 -0.47795,0.82782 -3.0703,4.9396 -4.02618,4.9396 -0.95589,0 -3.54824,-4.11178 -4.02618,-4.9396 -0.47795,-0.82782 -2.74267,-5.12875 -2.26473,-5.95657 0.47794,-0.82782 5.33502,-1.01698 6.29091,-1.01698 0.95588,0 5.81296,0.18916 6.2909,1.01698 z"
       transform="matrix(1,0,0,0.61487774,17.30205,-146.97007)"
       inkscape:transform-center-y="1.1166355" />
  </g>
</svg>
